<svg width="1172" height="441" viewBox="0 0 1172 441" fill="none" xmlns="http://www.w3.org/2000/svg">
<mask id="mask0_145_450" style="mask-type:alpha" maskUnits="userSpaceOnUse" x="0" y="0" width="1172" height="441">
<rect x="2.27344" width="1169" height="436" rx="32" transform="rotate(0.217373 2.27344 0)" fill="#C4C4C4"/>
</mask>
<g mask="url(#mask0_145_450)">
<rect x="2.27734" y="-0.999985" width="1170" height="437" transform="rotate(0.217373 2.27734 -0.999985)" fill="#5F2EEA"/>
<path opacity="0.2" d="M565.623 436.14L1169.27 4.42745L1167.62 438.424L565.623 436.14Z" fill="#2A00A2"/>
<path opacity="0.2" d="M-0.3731 433.993L1169.27 4.42745L1167.62 438.424L-0.3731 433.993Z" fill="#2A00A2"/>
</g>
<path d="M466.11 307.762C466.175 290.642 480.107 276.815 497.227 276.88L676.226 277.559C693.347 277.624 707.173 291.556 707.108 308.677C707.043 325.797 693.112 339.624 675.991 339.559L496.992 338.88C479.871 338.815 466.045 324.883 466.11 307.762Z" stroke="#FCFCFC" stroke-width="2"/>
<path d="M532.028 308.412C532.032 307.314 532.281 306.333 532.775 305.471C533.28 304.598 533.96 303.924 534.815 303.447C535.681 302.96 536.647 302.718 537.714 302.722C538.962 302.727 540.054 303.051 540.99 303.694C541.926 304.338 542.579 305.226 542.948 306.358L540.372 306.348C540.118 305.814 539.757 305.412 539.288 305.144C538.831 304.876 538.298 304.74 537.69 304.738C537.039 304.735 536.457 304.888 535.944 305.195C535.442 305.492 535.045 305.917 534.755 306.471C534.476 307.024 534.335 307.675 534.332 308.421C534.329 309.157 534.465 309.808 534.74 310.375C535.026 310.93 535.419 311.364 535.92 311.675C536.43 311.976 537.011 312.127 537.662 312.13C538.27 312.132 538.804 312.001 539.263 311.736C539.734 311.46 540.098 311.056 540.356 310.524L542.932 310.534C542.554 311.674 541.895 312.562 540.954 313.198C540.023 313.824 538.929 314.135 537.67 314.13C536.604 314.126 535.639 313.882 534.777 313.399C533.926 312.905 533.251 312.225 532.753 311.359C532.265 310.493 532.024 309.511 532.028 308.412ZM550.765 314.196C549.72 314.192 548.761 313.943 547.888 313.449C547.015 312.955 546.325 312.275 545.816 311.409C545.307 310.532 545.055 309.545 545.059 308.446C545.063 307.358 545.323 306.383 545.838 305.521C546.354 304.648 547.049 303.968 547.926 303.481C548.802 302.993 549.763 302.752 550.809 302.756C551.865 302.76 552.824 303.009 553.686 303.503C554.559 303.997 555.244 304.682 555.742 305.558C556.251 306.424 556.503 307.401 556.499 308.489C556.495 309.588 556.235 310.574 555.72 311.446C555.215 312.308 554.525 312.983 553.648 313.47C552.772 313.958 551.811 314.2 550.765 314.196ZM550.773 312.196C551.445 312.198 552.037 312.051 552.551 311.754C553.064 311.447 553.465 311.011 553.756 310.447C554.046 309.883 554.192 309.227 554.195 308.481C554.198 307.734 554.056 307.083 553.77 306.527C553.485 305.96 553.086 305.527 552.575 305.226C552.065 304.926 551.473 304.774 550.801 304.772C550.129 304.769 549.531 304.916 549.007 305.213C548.494 305.51 548.093 305.94 547.802 306.504C547.512 307.058 547.366 307.708 547.363 308.455C547.36 309.201 547.502 309.858 547.788 310.424C548.073 310.991 548.472 311.429 548.983 311.741C549.504 312.041 550.101 312.193 550.773 312.196ZM568.446 314.151L566.206 314.142L561.163 306.459L561.134 314.123L558.894 314.114L558.937 302.93L561.177 302.939L566.219 310.638L566.249 302.958L568.489 302.967L568.446 314.151ZM579.052 303.023L579.045 304.831L576.069 304.819L576.034 314.179L573.794 314.171L573.829 304.811L570.853 304.8L570.86 302.992L579.052 303.023ZM588.25 312.098L583.802 312.081L583.058 314.206L580.706 314.197L584.764 303.028L587.372 303.038L591.346 314.238L588.978 314.229L588.25 312.098ZM587.649 310.303L586.051 305.625L584.417 310.291L587.649 310.303ZM593.074 308.644C593.078 307.545 593.328 306.565 593.821 305.703C594.326 304.83 595.006 304.155 595.861 303.679C596.727 303.191 597.693 302.95 598.76 302.954C600.008 302.958 601.1 303.282 602.036 303.926C602.973 304.57 603.625 305.457 603.994 306.589L601.418 306.58C601.164 306.045 600.803 305.644 600.335 305.376C599.877 305.107 599.344 304.972 598.736 304.969C598.086 304.967 597.504 305.119 596.991 305.427C596.488 305.724 596.092 306.149 595.802 306.702C595.522 307.256 595.381 307.906 595.378 308.653C595.376 309.389 595.512 310.04 595.787 310.606C596.073 311.162 596.466 311.596 596.966 311.907C597.477 312.207 598.058 312.359 598.708 312.361C599.316 312.364 599.85 312.232 600.31 311.968C600.78 311.692 601.144 311.288 601.402 310.756L603.978 310.765C603.601 311.905 602.941 312.793 602 313.43C601.07 314.056 599.975 314.366 598.717 314.361C597.65 314.357 596.686 314.114 595.823 313.63C594.972 313.137 594.297 312.457 593.799 311.591C593.312 310.725 593.07 309.743 593.074 308.644ZM614.271 303.156L614.264 304.964L611.288 304.953L611.252 314.313L609.012 314.305L609.048 304.945L606.072 304.933L606.079 303.125L614.271 303.156ZM623.425 303.191L623.399 310.103C623.396 310.86 623.591 311.442 623.985 311.849C624.378 312.245 624.932 312.445 625.646 312.448C626.372 312.45 626.932 312.255 627.328 311.862C627.725 311.458 627.924 310.878 627.927 310.12L627.953 303.208L630.209 303.217L630.183 310.113C630.18 311.062 629.968 311.867 629.55 312.526C629.142 313.176 628.591 313.664 627.896 313.992C627.213 314.32 626.449 314.483 625.607 314.479C624.775 314.476 624.018 314.308 623.336 313.975C622.666 313.642 622.134 313.149 621.742 312.497C621.35 311.834 621.156 311.028 621.159 310.079L621.185 303.183L623.425 303.191ZM636.937 314.522C636.158 314.52 635.455 314.384 634.826 314.114C634.209 313.845 633.719 313.46 633.359 312.957C632.998 312.454 632.813 311.861 632.805 311.179L635.205 311.188C635.236 311.647 635.394 312.01 635.681 312.278C635.979 312.545 636.384 312.68 636.896 312.682C637.418 312.684 637.829 312.563 638.129 312.319C638.429 312.064 638.579 311.734 638.581 311.329C638.582 310.998 638.482 310.726 638.28 310.512C638.078 310.297 637.823 310.131 637.514 310.013C637.216 309.884 636.8 309.743 636.267 309.592C635.543 309.376 634.952 309.166 634.494 308.961C634.047 308.746 633.658 308.43 633.329 308.013C633.011 307.585 632.853 307.019 632.856 306.315C632.858 305.654 633.026 305.078 633.358 304.589C633.691 304.099 634.156 303.728 634.755 303.474C635.353 303.21 636.036 303.079 636.804 303.082C637.956 303.086 638.888 303.372 639.601 303.941C640.324 304.498 640.721 305.278 640.792 306.281L638.328 306.272C638.308 305.888 638.144 305.572 637.836 305.326C637.538 305.069 637.138 304.939 636.637 304.937C636.2 304.936 635.847 305.046 635.58 305.269C635.323 305.492 635.194 305.817 635.192 306.244C635.191 306.542 635.286 306.793 635.477 306.997C635.679 307.19 635.924 307.351 636.211 307.48C636.51 307.598 636.925 307.738 637.458 307.9C638.182 308.116 638.774 308.332 639.231 308.547C639.689 308.762 640.083 309.084 640.412 309.512C640.741 309.94 640.904 310.5 640.901 311.193C640.899 311.791 640.742 312.345 640.431 312.856C640.12 313.367 639.665 313.775 639.066 314.083C638.468 314.379 637.758 314.526 636.937 314.522Z" fill="#FCFCFC"/>
<path d="M322.444 185.216L314.236 185.185L300.587 164.349L300.508 185.133L292.3 185.102L292.428 151.406L300.636 151.437L314.284 172.369L314.364 151.489L322.572 151.52L322.444 185.216ZM354.694 171.514C354.691 172.282 354.64 173.082 354.541 173.914L335.965 173.843C336.086 175.508 336.61 176.79 337.534 177.689C338.491 178.557 339.657 178.993 341.033 178.999C343.081 179.006 344.509 178.148 345.315 176.423L354.051 176.456C353.596 178.214 352.774 179.795 351.585 181.199C350.428 182.602 348.967 183.701 347.204 184.494C345.441 185.287 343.472 185.68 341.296 185.672C338.672 185.662 336.338 185.093 334.294 183.965C332.251 182.837 330.657 181.231 329.513 179.147C328.369 177.063 327.802 174.628 327.812 171.844C327.823 169.06 328.392 166.631 329.52 164.555C330.68 162.479 332.286 160.885 334.338 159.773C336.39 158.661 338.744 158.11 341.4 158.12C343.992 158.13 346.294 158.682 348.306 159.778C350.318 160.874 351.88 162.432 352.993 164.452C354.137 166.472 354.704 168.826 354.694 171.514ZM346.302 169.323C346.307 167.915 345.832 166.793 344.875 165.957C343.918 165.121 342.72 164.701 341.28 164.695C339.904 164.69 338.734 165.086 337.771 165.882C336.84 166.679 336.26 167.812 336.03 169.284L346.302 169.323ZM385.272 171.63C385.269 172.398 385.218 173.198 385.119 174.03L366.543 173.959C366.664 175.624 367.188 176.906 368.112 177.805C369.069 178.673 370.235 179.109 371.611 179.115C373.659 179.122 375.086 178.264 375.893 176.539L384.629 176.572C384.174 178.33 383.352 179.911 382.163 181.315C381.006 182.718 379.545 183.817 377.782 184.61C376.019 185.403 374.05 185.796 371.874 185.788C369.25 185.778 366.916 185.209 364.872 184.081C362.829 182.953 361.235 181.347 360.091 179.263C358.946 177.179 358.38 174.744 358.39 171.96C358.401 169.176 358.97 166.747 360.098 164.671C361.258 162.595 362.864 161.001 364.916 159.889C366.968 158.777 369.322 158.226 371.978 158.236C374.57 158.246 376.872 158.798 378.884 159.894C380.896 160.99 382.458 162.548 383.57 164.568C384.715 166.588 385.282 168.942 385.272 171.63ZM376.88 169.439C376.885 168.031 376.41 166.909 375.453 166.073C374.496 165.237 373.297 164.817 371.857 164.811C370.481 164.806 369.312 165.202 368.349 165.998C367.418 166.795 366.838 167.928 366.608 169.4L376.88 169.439ZM388.968 172.028C388.979 169.276 389.5 166.862 390.532 164.786C391.596 162.71 393.026 161.116 394.822 160.003C396.618 158.889 398.62 158.337 400.828 158.345C402.588 158.352 404.187 158.726 405.624 159.468C407.093 160.209 408.241 161.205 409.069 162.457L409.116 150.025L417.324 150.056L417.189 185.576L408.981 185.544L408.996 181.704C408.223 182.982 407.115 184.001 405.672 184.764C404.261 185.527 402.612 185.904 400.724 185.897C398.516 185.889 396.518 185.321 394.73 184.194C392.943 183.036 391.525 181.414 390.477 179.33C389.461 177.214 388.958 174.78 388.968 172.028ZM409.032 172.153C409.04 170.105 408.47 168.486 407.322 167.298C406.207 166.11 404.833 165.513 403.201 165.506C401.569 165.5 400.175 166.087 399.018 167.267C397.894 168.414 397.328 170.012 397.32 172.06C397.312 174.108 397.866 175.742 398.982 176.962C400.129 178.151 401.519 178.748 403.151 178.754C404.783 178.76 406.161 178.174 407.286 176.994C408.442 175.814 409.024 174.201 409.032 172.153ZM469.577 158.702C472.905 158.715 475.542 159.733 477.486 161.756C479.462 163.78 480.444 166.583 480.43 170.167L480.371 185.815L472.211 185.784L472.266 171.24C472.272 169.512 471.813 168.183 470.889 167.251C469.997 166.288 468.75 165.803 467.15 165.797C465.551 165.791 464.285 166.266 463.353 167.223C462.454 168.147 462.001 169.473 461.994 171.201L461.939 185.745L453.779 185.714L453.834 171.171C453.841 169.443 453.382 168.113 452.457 167.181C451.565 166.218 450.319 165.733 448.719 165.727C447.119 165.721 445.853 166.196 444.921 167.153C444.022 168.077 443.569 169.404 443.562 171.132L443.507 185.675L435.299 185.644L435.401 158.86L443.609 158.892L443.596 162.252C444.432 161.135 445.523 160.259 446.87 159.624C448.216 158.957 449.738 158.627 451.434 158.633C453.45 158.641 455.24 159.08 456.805 159.95C458.401 160.82 459.645 162.056 460.535 163.66C461.468 162.191 462.737 160.996 464.34 160.074C465.944 159.152 467.689 158.695 469.577 158.702ZM499.302 186.271C496.678 186.261 494.312 185.692 492.204 184.564C490.128 183.436 488.486 181.83 487.278 179.745C486.102 177.661 485.519 175.227 485.53 172.443C485.54 169.691 486.158 167.277 487.381 165.202C488.605 163.094 490.276 161.485 492.392 160.373C494.508 159.261 496.878 158.71 499.502 158.72C502.126 158.73 504.492 159.299 506.6 160.427C508.707 161.555 510.365 163.177 511.573 165.294C512.781 167.378 513.38 169.796 513.37 172.548C513.359 175.3 512.726 177.73 511.47 179.837C510.246 181.913 508.56 183.506 506.412 184.618C504.296 185.73 501.926 186.281 499.302 186.271ZM499.329 179.167C500.896 179.173 502.227 178.602 503.319 177.454C504.443 176.307 505.01 174.661 505.018 172.517C505.026 170.373 504.488 168.723 503.405 167.567C502.353 166.411 501.043 165.83 499.475 165.824C497.875 165.818 496.545 166.389 495.485 167.536C494.424 168.652 493.89 170.298 493.882 172.474C493.874 174.618 494.379 176.268 495.399 177.424C496.451 178.58 497.761 179.161 499.329 179.167ZM526.966 163.672C527.932 162.204 529.136 161.056 530.579 160.23C532.022 159.371 533.624 158.945 535.384 158.952L535.351 167.64L533.095 167.631C531.047 167.623 529.509 168.066 528.482 168.958C527.455 169.818 526.937 171.352 526.928 173.56L526.881 185.992L518.673 185.961L518.775 159.177L526.983 159.208L526.966 163.672ZM565.505 172.314C565.502 173.082 565.451 173.882 565.352 174.714L546.776 174.643C546.897 176.308 547.421 177.59 548.345 178.489C549.302 179.357 550.468 179.793 551.844 179.798C553.892 179.806 555.319 178.948 556.126 177.223L564.862 177.256C564.407 179.014 563.585 180.595 562.396 181.998C561.239 183.402 559.778 184.501 558.015 185.294C556.252 186.087 554.283 186.48 552.107 186.471C549.483 186.461 547.149 185.893 545.105 184.765C543.062 183.637 541.468 182.031 540.324 179.947C539.179 177.862 538.613 175.428 538.623 172.644C538.634 169.86 539.203 167.43 540.331 165.355C541.491 163.279 543.097 161.685 545.149 160.573C547.201 159.461 549.555 158.91 552.211 158.92C554.803 158.929 557.105 159.482 559.117 160.578C561.129 161.673 562.691 163.231 563.804 165.252C564.948 167.272 565.515 169.626 565.505 172.314ZM557.113 170.122C557.118 168.714 556.643 167.593 555.686 166.757C554.729 165.921 553.53 165.501 552.091 165.495C550.715 165.49 549.545 165.886 548.582 166.682C547.651 167.478 547.071 168.612 546.841 170.083L557.113 170.122ZM586.194 156.649C584.754 156.643 583.572 156.223 582.647 155.387C581.754 154.52 581.31 153.462 581.315 152.214C581.32 150.934 581.772 149.88 582.671 149.051C583.602 148.191 584.788 147.763 586.228 147.769C587.636 147.774 588.786 148.21 589.679 149.078C590.604 149.913 591.064 150.971 591.059 152.251C591.054 153.499 590.586 154.553 589.655 155.414C588.756 156.242 587.602 156.654 586.194 156.649ZM590.264 159.448L590.162 186.232L581.954 186.201L582.056 159.417L590.264 159.448ZM613.533 159.248C616.669 159.26 619.161 160.294 621.009 162.349C622.89 164.372 623.823 167.159 623.809 170.711L623.75 186.359L615.59 186.328L615.645 171.784C615.652 169.992 615.193 168.599 614.269 167.603C613.345 166.608 612.099 166.107 610.531 166.101C608.963 166.095 607.713 166.586 606.781 167.575C605.849 168.563 605.38 169.953 605.373 171.745L605.318 186.289L597.11 186.258L597.212 159.474L605.42 159.506L605.406 163.057C606.243 161.877 607.366 160.953 608.777 160.286C610.188 159.588 611.773 159.242 613.533 159.248ZM643.969 166.468L639.554 166.451L639.478 186.419L631.27 186.388L631.346 166.42L628.37 166.409L628.395 159.593L631.371 159.604L631.374 158.836C631.387 155.54 632.34 153.048 634.235 151.359C636.129 149.638 638.901 148.784 642.548 148.798C643.156 148.801 643.604 148.818 643.892 148.851L643.866 155.811C642.298 155.709 641.193 155.929 640.551 156.471C639.909 157.012 639.586 157.987 639.58 159.395L639.579 159.635L643.995 159.652L643.969 166.468ZM660.941 186.884C658.317 186.874 655.951 186.305 653.843 185.177C651.768 184.05 650.126 182.443 648.918 180.359C647.742 178.274 647.159 175.84 647.169 173.056C647.18 170.304 647.797 167.89 649.021 165.815C650.245 163.708 651.915 162.098 654.031 160.986C656.147 159.874 658.518 159.323 661.142 159.333C663.766 159.343 666.131 159.912 668.239 161.04C670.347 162.168 672.005 163.79 673.213 165.907C674.421 167.991 675.02 170.41 675.009 173.162C674.999 175.914 674.366 178.343 673.11 180.45C671.886 182.526 670.2 184.119 668.051 185.231C665.935 186.343 663.565 186.894 660.941 186.884ZM660.968 179.78C662.536 179.786 663.866 179.215 664.958 178.068C666.083 176.92 666.649 175.274 666.657 173.13C666.665 170.986 666.128 169.336 665.044 168.18C663.992 167.024 662.683 166.443 661.115 166.437C659.515 166.431 658.184 167.002 657.124 168.15C656.064 169.266 655.53 170.912 655.521 173.088C655.513 175.232 656.019 176.882 657.039 178.037C658.09 179.193 659.4 179.774 660.968 179.78ZM688.605 164.285C689.571 162.817 690.775 161.669 692.219 160.843C693.662 159.984 695.263 159.558 697.023 159.565L696.99 168.253L694.734 168.244C692.686 168.237 691.149 168.679 690.121 169.571C689.094 170.431 688.576 171.965 688.568 174.173L688.521 186.605L680.313 186.574L680.414 159.79L688.622 159.821L688.605 164.285ZM736.122 159.713C739.45 159.726 742.087 160.744 744.031 162.767C746.007 164.791 746.989 167.595 746.975 171.179L746.916 186.827L738.756 186.796L738.811 172.252C738.817 170.524 738.358 169.194 737.434 168.262C736.542 167.299 735.295 166.814 733.695 166.808C732.095 166.802 730.83 167.277 729.898 168.234C728.999 169.158 728.545 170.485 728.539 172.213L728.484 186.757L720.324 186.726L720.379 172.182C720.386 170.454 719.927 169.124 719.002 168.192C718.11 167.229 716.864 166.744 715.264 166.738C713.664 166.732 712.398 167.207 711.466 168.164C710.567 169.088 710.114 170.415 710.107 172.143L710.052 186.687L701.844 186.656L701.946 159.872L710.153 159.903L710.141 163.263C710.977 162.146 712.068 161.27 713.415 160.635C714.761 159.968 716.283 159.638 717.979 159.645C719.995 159.652 721.785 160.091 723.35 160.961C724.946 161.831 726.19 163.068 727.08 164.671C728.013 163.203 729.282 162.007 730.885 161.086C732.489 160.164 734.234 159.706 736.122 159.713ZM752.075 173.406C752.085 170.654 752.607 168.24 753.639 166.164C754.702 164.088 756.132 162.493 757.929 161.38C759.725 160.267 761.727 159.715 763.935 159.723C765.823 159.73 767.47 160.12 768.875 160.894C770.312 161.667 771.412 162.679 772.175 163.93L772.19 160.138L780.397 160.169L780.296 186.953L772.088 186.922L772.102 183.13C771.298 184.375 770.174 185.379 768.731 186.141C767.32 186.904 765.671 187.282 763.783 187.275C761.607 187.266 759.625 186.699 757.837 185.572C756.049 184.413 754.631 182.792 753.583 180.708C752.567 178.592 752.065 176.158 752.075 173.406ZM772.139 173.53C772.146 171.482 771.577 169.864 770.429 168.676C769.314 167.487 767.94 166.89 766.308 166.884C764.676 166.878 763.282 167.464 762.125 168.644C761.001 169.792 760.435 171.39 760.427 173.438C760.419 175.486 760.973 177.12 762.088 178.34C763.236 179.528 764.626 180.126 766.258 180.132C767.89 180.138 769.268 179.551 770.392 178.372C771.549 177.192 772.131 175.578 772.139 173.53ZM802.188 180.076L802.162 187.036L797.986 187.02C795.01 187.009 792.693 186.28 791.034 184.834C789.376 183.356 788.553 180.968 788.565 177.672L788.606 167.017L785.342 167.004L785.368 160.188L788.632 160.201L788.656 153.673L796.864 153.704L796.839 160.232L802.215 160.252L802.19 167.068L796.814 167.048L796.773 177.8C796.77 178.6 796.96 179.176 797.342 179.53C797.725 179.883 798.364 180.062 799.26 180.065L802.188 180.076ZM811.974 157.505C810.534 157.5 809.352 157.079 808.427 156.244C807.534 155.376 807.09 154.319 807.095 153.071C807.1 151.791 807.552 150.736 808.451 149.908C809.382 149.047 810.568 148.62 812.008 148.625C813.416 148.631 814.566 149.067 815.459 149.934C816.384 150.77 816.844 151.828 816.839 153.108C816.834 154.356 816.366 155.41 815.435 156.27C814.535 157.099 813.382 157.51 811.974 157.505ZM816.043 160.305L815.942 187.088L807.734 187.057L807.835 160.273L816.043 160.305ZM835.08 187.545C832.456 187.535 830.091 186.966 827.983 185.838C825.907 184.71 824.265 183.104 823.057 181.019C821.881 178.935 821.298 176.501 821.309 173.717C821.319 170.965 821.936 168.551 823.16 166.476C824.384 164.368 826.054 162.759 828.171 161.647C830.287 160.535 832.657 159.984 835.281 159.994C837.905 160.004 840.271 160.573 842.378 161.701C844.486 162.829 846.144 164.451 847.352 166.567C848.56 168.652 849.159 171.07 849.149 173.822C849.138 176.574 848.505 179.004 847.249 181.111C846.025 183.187 844.339 184.78 842.191 185.892C840.074 187.004 837.704 187.555 835.08 187.545ZM835.107 180.441C836.675 180.447 838.005 179.876 839.098 178.728C840.222 177.58 840.788 175.935 840.797 173.791C840.805 171.647 840.267 169.997 839.183 168.84C838.132 167.684 836.822 167.103 835.254 167.098C833.654 167.091 832.324 167.662 831.263 168.81C830.203 169.926 829.669 171.572 829.661 173.748C829.653 175.892 830.158 177.542 831.178 178.698C832.23 179.854 833.539 180.435 835.107 180.441ZM870.875 160.225C874.011 160.237 876.503 161.27 878.351 163.325C880.231 165.348 881.165 168.136 881.151 171.688L881.092 187.336L872.932 187.305L872.987 172.761C872.994 170.969 872.535 169.575 871.611 168.579C870.687 167.584 869.441 167.083 867.873 167.077C866.305 167.071 865.055 167.563 864.123 168.551C863.191 169.54 862.722 170.93 862.715 172.722L862.66 187.266L854.452 187.235L854.554 160.451L862.762 160.482L862.748 164.034C863.585 162.853 864.708 161.929 866.119 161.263C867.529 160.564 869.115 160.218 870.875 160.225ZM418.353 228.62L418.326 235.58L414.15 235.564C411.175 235.553 408.857 234.824 407.199 233.378C405.54 231.9 404.717 229.513 404.73 226.217L404.77 215.561L401.506 215.548L401.532 208.732L404.796 208.745L404.821 202.217L413.029 202.248L413.004 208.776L418.38 208.796L418.354 215.612L412.978 215.592L412.937 226.344C412.934 227.144 413.124 227.72 413.507 228.074C413.89 228.427 414.529 228.606 415.425 228.609L418.353 228.62ZM436.089 236.032C433.465 236.022 431.099 235.453 428.991 234.325C426.916 233.197 425.274 231.591 424.066 229.506C422.889 227.422 422.307 224.987 422.317 222.203C422.328 219.451 422.945 217.038 424.169 214.962C425.393 212.855 427.063 211.245 429.179 210.133C431.295 209.021 433.665 208.47 436.289 208.48C438.913 208.49 441.279 209.059 443.387 210.187C445.495 211.315 447.153 212.937 448.361 215.054C449.569 217.139 450.167 219.557 450.157 222.309C450.147 225.061 449.513 227.491 448.257 229.598C447.033 231.673 445.347 233.267 443.199 234.379C441.083 235.491 438.713 236.042 436.089 236.032ZM436.116 228.928C437.684 228.934 439.014 228.363 440.106 227.215C441.231 226.067 441.797 224.421 441.805 222.277C441.813 220.133 441.275 218.483 440.192 217.327C439.14 216.171 437.83 215.59 436.262 215.584C434.662 215.578 433.332 216.149 432.272 217.297C431.212 218.413 430.677 220.059 430.669 222.235C430.661 224.379 431.167 226.029 432.186 227.185C433.238 228.341 434.548 228.922 436.116 228.928ZM476.911 208.634C478.799 208.641 480.446 209.032 481.851 209.805C483.288 210.579 484.388 211.591 485.152 212.842L485.166 209.05L493.374 209.081L493.272 235.817C493.263 238.281 492.759 240.503 491.759 242.483C490.792 244.495 489.297 246.09 487.277 247.266C485.289 248.442 482.806 249.025 479.83 249.014C475.862 248.999 472.65 248.042 470.193 246.145C467.736 244.28 466.338 241.746 465.998 238.545L474.11 238.576C474.362 239.601 474.967 240.403 475.925 240.983C476.882 241.594 478.065 241.903 479.473 241.908C481.169 241.915 482.515 241.424 483.511 240.436C484.539 239.479 485.056 237.929 485.065 235.785L485.079 231.993C484.274 233.238 483.166 234.258 481.755 235.053C480.344 235.816 478.695 236.193 476.807 236.186C474.599 236.178 472.601 235.61 470.813 234.483C469.026 233.325 467.608 231.703 466.56 229.619C465.544 227.503 465.041 225.069 465.051 222.317C465.062 219.565 465.583 217.151 466.615 215.075C467.679 212.999 469.109 211.405 470.905 210.292C472.701 209.178 474.704 208.626 476.911 208.634ZM485.115 222.442C485.123 220.394 484.553 218.775 483.406 217.587C482.29 216.399 480.916 215.802 479.284 215.795C477.652 215.789 476.258 216.376 475.102 217.556C473.977 218.703 473.411 220.301 473.403 222.349C473.396 224.397 473.949 226.031 475.065 227.251C476.212 228.44 477.602 229.037 479.234 229.043C480.866 229.049 482.244 228.463 483.369 227.283C484.525 226.103 485.107 224.49 485.115 222.442ZM525.511 222.163C525.508 222.931 525.457 223.731 525.358 224.562L506.782 224.492C506.903 226.156 507.426 227.438 508.351 228.338C509.308 229.205 510.474 229.642 511.85 229.647C513.898 229.655 515.325 228.796 516.132 227.071L524.868 227.104C524.413 228.863 523.591 230.444 522.402 231.847C521.245 233.251 519.784 234.349 518.021 235.142C516.258 235.936 514.289 236.328 512.113 236.32C509.489 236.31 507.155 235.741 505.111 234.613C503.068 233.486 501.474 231.88 500.329 229.795C499.185 227.711 498.619 225.277 498.629 222.493C498.64 219.709 499.209 217.279 500.337 215.203C501.497 213.128 503.103 211.534 505.155 210.421C507.207 209.309 509.561 208.758 512.217 208.768C514.809 208.778 517.111 209.331 519.123 210.426C521.135 211.522 522.697 213.08 523.809 215.1C524.954 217.121 525.521 219.475 525.511 222.163ZM517.119 219.971C517.124 218.563 516.648 217.441 515.692 216.606C514.735 215.77 513.536 215.349 512.096 215.344C510.72 215.339 509.551 215.734 508.588 216.531C507.657 217.327 507.077 218.461 506.847 219.932L517.119 219.971ZM545.743 229.104L545.716 236.064L541.54 236.048C538.564 236.036 536.247 235.308 534.588 233.861C532.93 232.383 532.107 229.996 532.12 226.7L532.16 216.044L528.896 216.032L528.922 209.216L532.186 209.228L532.211 202.7L540.419 202.731L540.394 209.259L545.77 209.28L545.744 216.096L540.368 216.075L540.327 226.827C540.324 227.627 540.514 228.204 540.897 228.557C541.279 228.911 541.919 229.089 542.815 229.092L545.743 229.104ZM573.354 236.552C571.018 236.544 568.94 236.136 567.119 235.329C565.298 234.522 563.862 233.428 562.811 232.048C561.761 230.636 561.175 229.066 561.053 227.338L569.165 227.368C569.258 228.297 569.687 229.05 570.453 229.629C571.218 230.208 572.161 230.5 573.281 230.504C574.305 230.508 575.09 230.319 575.635 229.937C576.213 229.523 576.503 228.996 576.506 228.356C576.508 227.588 576.111 227.027 575.312 226.672C574.513 226.285 573.219 225.864 571.429 225.409C569.51 224.954 567.912 224.484 566.634 223.999C565.356 223.482 564.255 222.694 563.331 221.634C562.407 220.543 561.949 219.085 561.955 217.261C561.961 215.725 562.383 214.335 563.219 213.09C564.088 211.813 565.34 210.81 566.975 210.08C568.642 209.35 570.611 208.99 572.883 208.998C576.243 209.011 578.88 209.853 580.793 211.524C582.739 213.196 583.851 215.408 584.128 218.161L576.544 218.132C576.42 217.204 576.007 216.466 575.305 215.92C574.635 215.373 573.74 215.098 572.62 215.093C571.66 215.09 570.923 215.279 570.41 215.661C569.896 216.011 569.638 216.506 569.636 217.146C569.633 217.914 570.031 218.492 570.829 218.879C571.66 219.266 572.938 219.655 574.665 220.045C576.647 220.565 578.261 221.083 579.507 221.6C580.753 222.084 581.838 222.889 582.762 224.012C583.718 225.104 584.208 226.578 584.233 228.434C584.227 230.002 583.774 231.408 582.873 232.652C582.005 233.865 580.737 234.82 579.07 235.518C577.436 236.216 575.53 236.561 573.354 236.552ZM605.18 229.329L605.153 236.289L600.977 236.273C598.001 236.262 595.684 235.533 594.026 234.087C592.367 232.609 591.544 230.221 591.557 226.925L591.597 216.269L588.333 216.257L588.359 209.441L591.623 209.454L591.648 202.926L599.856 202.957L599.831 209.485L605.207 209.505L605.181 216.321L599.805 216.301L599.764 227.053C599.761 227.853 599.951 228.429 600.334 228.783C600.716 229.136 601.356 229.315 602.252 229.318L605.18 229.329ZM609.144 222.864C609.155 220.112 609.676 217.698 610.708 215.622C611.772 213.546 613.202 211.951 614.998 210.838C616.794 209.725 618.796 209.173 621.004 209.181C622.892 209.188 624.539 209.578 625.944 210.352C627.381 211.125 628.481 212.137 629.244 213.388L629.259 209.596L637.467 209.627L637.365 236.411L629.157 236.38L629.171 232.588C628.367 233.833 627.243 234.837 625.8 235.599C624.389 236.362 622.74 236.74 620.852 236.733C618.676 236.724 616.694 236.157 614.906 235.03C613.118 233.871 611.701 232.25 610.653 230.166C609.637 228.05 609.134 225.616 609.144 222.864ZM629.208 222.988C629.216 220.94 628.646 219.322 627.498 218.134C626.383 216.945 625.009 216.348 623.377 216.342C621.745 216.336 620.351 216.923 619.194 218.102C618.07 219.25 617.504 220.848 617.496 222.896C617.488 224.944 618.042 226.578 619.158 227.798C620.305 228.986 621.695 229.584 623.327 229.59C624.959 229.596 626.337 229.009 627.461 227.83C628.618 226.65 629.2 225.036 629.208 222.988ZM652.596 214.149C653.561 212.681 654.766 211.533 656.209 210.707C657.652 209.848 659.254 209.422 661.014 209.429L660.981 218.117L658.725 218.108C656.677 218.1 655.139 218.543 654.112 219.435C653.084 220.295 652.567 221.829 652.558 224.037L652.511 236.469L644.303 236.438L644.405 209.654L652.613 209.685L652.596 214.149ZM680.788 229.616L680.762 236.576L676.586 236.56C673.61 236.549 671.293 235.82 669.634 234.374C667.976 232.895 667.153 230.508 667.165 227.212L667.206 216.556L663.942 216.544L663.968 209.728L667.232 209.74L667.257 203.212L675.464 203.244L675.44 209.772L680.816 209.792L680.79 216.608L675.414 216.587L675.373 227.339C675.37 228.139 675.56 228.716 675.943 229.07C676.325 229.423 676.964 229.601 677.86 229.605L680.788 229.616ZM711.634 222.869C711.631 223.637 711.58 224.437 711.481 225.268L692.905 225.198C693.027 226.862 693.55 228.144 694.475 229.044C695.431 229.912 696.598 230.348 697.974 230.353C700.022 230.361 701.449 229.502 702.256 227.777L710.992 227.811C710.537 229.569 709.715 231.15 708.526 232.553C707.368 233.957 705.908 235.055 704.145 235.849C702.382 236.642 700.412 237.034 698.236 237.026C695.613 237.016 693.279 236.447 691.235 235.32C689.191 234.192 687.597 232.586 686.453 230.501C685.309 228.417 684.742 225.983 684.753 223.199C684.763 220.415 685.333 217.985 686.461 215.909C687.62 213.834 689.226 212.24 691.279 211.128C693.331 210.015 695.685 209.464 698.341 209.474C700.933 209.484 703.235 210.037 705.247 211.133C707.259 212.228 708.821 213.786 709.933 215.806C711.077 217.827 711.644 220.181 711.634 222.869ZM703.243 220.677C703.248 219.269 702.772 218.147 701.815 217.312C700.858 216.476 699.66 216.055 698.22 216.05C696.844 216.045 695.675 216.44 694.712 217.237C693.781 218.033 693.2 219.167 692.971 220.638L703.243 220.677ZM715.331 223.267C715.341 220.515 715.863 218.101 716.894 216.025C717.958 213.949 719.388 212.354 721.185 211.241C722.981 210.128 724.983 209.575 727.191 209.584C728.951 209.591 730.55 209.965 731.987 210.706C733.456 211.448 734.604 212.444 735.431 213.695L735.479 201.263L743.686 201.294L743.552 236.814L735.344 236.783L735.358 232.943C734.586 234.22 733.478 235.24 732.035 236.002C730.624 236.765 728.974 237.143 727.086 237.136C724.878 237.127 722.881 236.56 721.093 235.433C719.305 234.274 717.887 232.653 716.839 230.569C715.823 228.453 715.32 226.019 715.331 223.267ZM735.395 223.391C735.402 221.343 734.833 219.725 733.685 218.537C732.57 217.348 731.196 216.751 729.564 216.745C727.932 216.739 726.538 217.325 725.381 218.505C724.257 219.653 723.691 221.251 723.683 223.299C723.675 225.347 724.229 226.981 725.344 228.201C726.492 229.389 727.882 229.987 729.514 229.993C731.146 229.999 732.524 229.412 733.648 228.232C734.805 227.053 735.387 225.439 735.395 223.391ZM760.465 201.31C763.889 201.323 766.621 202.229 768.662 204.029C770.736 205.829 771.766 208.361 771.754 211.625C771.742 214.633 770.741 216.981 768.751 218.67C766.793 220.326 764.197 221.164 760.965 221.184L760.712 224.783L753.512 224.756L753.306 215.827L756.186 215.838C758.65 215.847 760.523 215.55 761.805 214.947C763.119 214.344 763.779 213.243 763.786 211.643C763.79 210.523 763.489 209.642 762.884 208.999C762.278 208.357 761.431 208.034 760.343 208.03C759.191 208.025 758.294 208.358 757.651 209.027C757.009 209.665 756.686 210.544 756.681 211.664L748.953 211.634C748.897 209.682 749.304 207.924 750.173 206.359C751.075 204.794 752.392 203.567 754.123 202.678C755.887 201.757 758.001 201.301 760.465 201.31ZM757.16 237.25C755.72 237.244 754.538 236.824 753.613 235.988C752.72 235.121 752.276 234.063 752.281 232.815C752.286 231.535 752.738 230.465 753.637 229.604C754.569 228.744 755.754 228.316 757.194 228.322C758.602 228.327 759.753 228.764 760.645 229.631C761.57 230.498 762.03 231.572 762.025 232.852C762.02 234.1 761.552 235.154 760.621 236.015C759.722 236.843 758.568 237.255 757.16 237.25Z" fill="white"/>
</svg>
