<svg width="427" height="462" viewBox="0 0 427 462" fill="none" xmlns="http://www.w3.org/2000/svg">
<mask id="mask0_147_0" style="mask-type:alpha" maskUnits="userSpaceOnUse" x="0" y="0" width="427" height="462">
<rect width="427" height="462" rx="32" fill="#C4C4C4"/>
</mask>
<g mask="url(#mask0_147_0)">
<rect x="0.000976562" y="-1.05981" width="427.365" height="463.06" fill="#5F2EEA"/>
<path opacity="0.2" d="M206.378 459.881L426.27 -0.00012207V459.881H206.378Z" fill="#2A00A2"/>
<path opacity="0.2" d="M0 461.881L426.635 2.00024V461.881H0Z" fill="#2A00A2"/>
<path d="M30 338C30 320.879 43.8792 307 61 307H350C367.121 307 381 320.879 381 338C381 355.121 367.121 369 350 369H61C43.8792 369 30 355.121 30 338Z" stroke="#FCFCFC" stroke-width="2"/>
<path d="M150.92 338.4C150.92 337.301 151.165 336.32 151.656 335.456C152.157 334.581 152.834 333.904 153.688 333.424C154.552 332.933 155.517 332.688 156.584 332.688C157.832 332.688 158.925 333.008 159.864 333.648C160.802 334.288 161.458 335.173 161.832 336.304H159.256C159 335.771 158.637 335.371 158.168 335.104C157.709 334.837 157.176 334.704 156.568 334.704C155.917 334.704 155.336 334.859 154.824 335.168C154.322 335.467 153.928 335.893 153.64 336.448C153.362 337.003 153.224 337.653 153.224 338.4C153.224 339.136 153.362 339.787 153.64 340.352C153.928 340.907 154.322 341.339 154.824 341.648C155.336 341.947 155.917 342.096 156.568 342.096C157.176 342.096 157.709 341.963 158.168 341.696C158.637 341.419 159 341.013 159.256 340.48H161.832C161.458 341.621 160.802 342.512 159.864 343.152C158.936 343.781 157.842 344.096 156.584 344.096C155.517 344.096 154.552 343.856 153.688 343.376C152.834 342.885 152.157 342.208 151.656 341.344C151.165 340.48 150.92 339.499 150.92 338.4ZM169.679 344.112C168.634 344.112 167.674 343.867 166.799 343.376C165.924 342.885 165.231 342.208 164.719 341.344C164.207 340.469 163.951 339.483 163.951 338.384C163.951 337.296 164.207 336.32 164.719 335.456C165.231 334.581 165.924 333.899 166.799 333.408C167.674 332.917 168.634 332.672 169.679 332.672C170.735 332.672 171.695 332.917 172.559 333.408C173.434 333.899 174.122 334.581 174.623 335.456C175.135 336.32 175.391 337.296 175.391 338.384C175.391 339.483 175.135 340.469 174.623 341.344C174.122 342.208 173.434 342.885 172.559 343.376C171.684 343.867 170.724 344.112 169.679 344.112ZM169.679 342.112C170.351 342.112 170.943 341.963 171.455 341.664C171.967 341.355 172.367 340.917 172.655 340.352C172.943 339.787 173.087 339.131 173.087 338.384C173.087 337.637 172.943 336.987 172.655 336.432C172.367 335.867 171.967 335.435 171.455 335.136C170.943 334.837 170.351 334.688 169.679 334.688C169.007 334.688 168.41 334.837 167.887 335.136C167.375 335.435 166.975 335.867 166.687 336.432C166.399 336.987 166.255 337.637 166.255 338.384C166.255 339.131 166.399 339.787 166.687 340.352C166.975 340.917 167.375 341.355 167.887 341.664C168.41 341.963 169.007 342.112 169.679 342.112ZM187.36 344H185.12L180.048 336.336V344H177.808V332.816H180.048L185.12 340.496V332.816H187.36V344ZM197.923 332.832V334.64H194.947V344H192.707V334.64H189.731V332.832H197.923ZM207.156 341.872H202.708L201.972 344H199.62L203.636 332.816H206.244L210.26 344H207.892L207.156 341.872ZM206.548 340.08L204.932 335.408L203.316 340.08H206.548ZM211.967 338.4C211.967 337.301 212.212 336.32 212.703 335.456C213.204 334.581 213.881 333.904 214.735 333.424C215.599 332.933 216.564 332.688 217.631 332.688C218.879 332.688 219.972 333.008 220.911 333.648C221.849 334.288 222.505 335.173 222.879 336.304H220.303C220.047 335.771 219.684 335.371 219.215 335.104C218.756 334.837 218.223 334.704 217.615 334.704C216.964 334.704 216.383 334.859 215.871 335.168C215.369 335.467 214.975 335.893 214.687 336.448C214.409 337.003 214.271 337.653 214.271 338.4C214.271 339.136 214.409 339.787 214.687 340.352C214.975 340.907 215.369 341.339 215.871 341.648C216.383 341.947 216.964 342.096 217.615 342.096C218.223 342.096 218.756 341.963 219.215 341.696C219.684 341.419 220.047 341.013 220.303 340.48H222.879C222.505 341.621 221.849 342.512 220.911 343.152C219.983 343.781 218.889 344.096 217.631 344.096C216.564 344.096 215.599 343.856 214.735 343.376C213.881 342.885 213.204 342.208 212.703 341.344C212.212 340.48 211.967 339.499 211.967 338.4ZM233.142 332.832V334.64H230.166V344H227.926V334.64H224.95V332.832H233.142ZM242.297 332.832V339.744C242.297 340.501 242.494 341.083 242.889 341.488C243.283 341.883 243.838 342.08 244.553 342.08C245.278 342.08 245.838 341.883 246.233 341.488C246.627 341.083 246.825 340.501 246.825 339.744V332.832H249.081V339.728C249.081 340.677 248.873 341.483 248.457 342.144C248.051 342.795 247.502 343.285 246.809 343.616C246.126 343.947 245.363 344.112 244.521 344.112C243.689 344.112 242.931 343.947 242.249 343.616C241.577 343.285 241.043 342.795 240.649 342.144C240.254 341.483 240.057 340.677 240.057 339.728V332.832H242.297ZM255.851 344.112C255.072 344.112 254.368 343.979 253.739 343.712C253.12 343.445 252.63 343.061 252.267 342.56C251.904 342.059 251.718 341.467 251.707 340.784H254.107C254.139 341.243 254.299 341.605 254.587 341.872C254.886 342.139 255.291 342.272 255.803 342.272C256.326 342.272 256.736 342.149 257.035 341.904C257.334 341.648 257.483 341.317 257.483 340.912C257.483 340.581 257.382 340.309 257.179 340.096C256.976 339.883 256.72 339.717 256.411 339.6C256.112 339.472 255.696 339.333 255.163 339.184C254.438 338.971 253.846 338.763 253.387 338.56C252.939 338.347 252.55 338.032 252.219 337.616C251.899 337.189 251.739 336.624 251.739 335.92C251.739 335.259 251.904 334.683 252.235 334.192C252.566 333.701 253.03 333.328 253.627 333.072C254.224 332.805 254.907 332.672 255.675 332.672C256.827 332.672 257.76 332.955 258.475 333.52C259.2 334.075 259.6 334.853 259.675 335.856H257.211C257.19 335.472 257.024 335.157 256.715 334.912C256.416 334.656 256.016 334.528 255.515 334.528C255.078 334.528 254.726 334.64 254.459 334.864C254.203 335.088 254.075 335.413 254.075 335.84C254.075 336.139 254.171 336.389 254.363 336.592C254.566 336.784 254.811 336.944 255.099 337.072C255.398 337.189 255.814 337.328 256.347 337.488C257.072 337.701 257.664 337.915 258.123 338.128C258.582 338.341 258.976 338.661 259.307 339.088C259.638 339.515 259.803 340.075 259.803 340.768C259.803 341.365 259.648 341.92 259.339 342.432C259.03 342.944 258.576 343.355 257.979 343.664C257.382 343.963 256.672 344.112 255.851 344.112Z" fill="#FCFCFC"/>
<path d="M107.878 170H99.6698L85.9418 149.216V170H77.7338V136.304H85.9418L99.6698 157.184V136.304H107.878V170ZM140.076 156.176C140.076 156.944 140.028 157.744 139.932 158.576H121.356C121.484 160.24 122.012 161.52 122.94 162.416C123.9 163.28 125.068 163.712 126.444 163.712C128.492 163.712 129.916 162.848 130.716 161.12H139.452C139.004 162.88 138.188 164.464 137.004 165.872C135.852 167.28 134.396 168.384 132.636 169.184C130.876 169.984 128.908 170.384 126.732 170.384C124.108 170.384 121.772 169.824 119.724 168.704C117.676 167.584 116.076 165.984 114.924 163.904C113.772 161.824 113.196 159.392 113.196 156.608C113.196 153.824 113.756 151.392 114.876 149.312C116.028 147.232 117.628 145.632 119.676 144.512C121.724 143.392 124.076 142.832 126.732 142.832C129.324 142.832 131.628 143.376 133.644 144.464C135.66 145.552 137.228 147.104 138.348 149.12C139.5 151.136 140.076 153.488 140.076 156.176ZM131.676 154.016C131.676 152.608 131.196 151.488 130.236 150.656C129.276 149.824 128.076 149.408 126.636 149.408C125.26 149.408 124.092 149.808 123.132 150.608C122.204 151.408 121.628 152.544 121.404 154.016H131.676ZM170.654 156.176C170.654 156.944 170.606 157.744 170.51 158.576H151.934C152.062 160.24 152.59 161.52 153.518 162.416C154.478 163.28 155.646 163.712 157.022 163.712C159.07 163.712 160.494 162.848 161.294 161.12H170.03C169.582 162.88 168.766 164.464 167.582 165.872C166.43 167.28 164.974 168.384 163.214 169.184C161.454 169.984 159.486 170.384 157.31 170.384C154.686 170.384 152.35 169.824 150.302 168.704C148.254 167.584 146.654 165.984 145.502 163.904C144.35 161.824 143.774 159.392 143.774 156.608C143.774 153.824 144.334 151.392 145.454 149.312C146.606 147.232 148.206 145.632 150.254 144.512C152.302 143.392 154.654 142.832 157.31 142.832C159.902 142.832 162.206 143.376 164.222 144.464C166.238 145.552 167.806 147.104 168.926 149.12C170.078 151.136 170.654 153.488 170.654 156.176ZM162.254 154.016C162.254 152.608 161.774 151.488 160.814 150.656C159.854 149.824 158.654 149.408 157.214 149.408C155.838 149.408 154.67 149.808 153.71 150.608C152.782 151.408 152.206 152.544 151.982 154.016H162.254ZM174.352 156.56C174.352 153.808 174.864 151.392 175.888 149.312C176.944 147.232 178.368 145.632 180.16 144.512C181.952 143.392 183.952 142.832 186.16 142.832C187.92 142.832 189.52 143.2 190.96 143.936C192.432 144.672 193.584 145.664 194.416 146.912V134.48H202.624V170H194.416V166.16C193.648 167.44 192.544 168.464 191.104 169.232C189.696 170 188.048 170.384 186.16 170.384C183.952 170.384 181.952 169.824 180.16 168.704C178.368 167.552 176.944 165.936 175.888 163.856C174.864 161.744 174.352 159.312 174.352 156.56ZM194.416 156.608C194.416 154.56 193.84 152.944 192.688 151.76C191.568 150.576 190.192 149.984 188.56 149.984C186.928 149.984 185.536 150.576 184.384 151.76C183.264 152.912 182.704 154.512 182.704 156.56C182.704 158.608 183.264 160.24 184.384 161.456C185.536 162.64 186.928 163.232 188.56 163.232C190.192 163.232 191.568 162.64 192.688 161.456C193.84 160.272 194.416 158.656 194.416 156.608ZM254.91 142.928C258.238 142.928 260.878 143.936 262.83 145.952C264.814 147.968 265.806 150.768 265.806 154.352V170H257.646V155.456C257.646 153.728 257.182 152.4 256.254 151.472C255.358 150.512 254.11 150.032 252.51 150.032C250.91 150.032 249.646 150.512 248.718 151.472C247.822 152.4 247.374 153.728 247.374 155.456V170H239.214V155.456C239.214 153.728 238.75 152.4 237.822 151.472C236.926 150.512 235.678 150.032 234.078 150.032C232.478 150.032 231.214 150.512 230.286 151.472C229.39 152.4 228.942 153.728 228.942 155.456V170H220.734V143.216H228.942V146.576C229.774 145.456 230.862 144.576 232.206 143.936C233.55 143.264 235.07 142.928 236.766 142.928C238.782 142.928 240.574 143.36 242.142 144.224C243.742 145.088 244.99 146.32 245.886 147.92C246.814 146.448 248.078 145.248 249.678 144.32C251.278 143.392 253.022 142.928 254.91 142.928ZM284.738 170.384C282.114 170.384 279.746 169.824 277.634 168.704C275.554 167.584 273.906 165.984 272.69 163.904C271.506 161.824 270.914 159.392 270.914 156.608C270.914 153.856 271.522 151.44 272.738 149.36C273.954 147.248 275.618 145.632 277.73 144.512C279.842 143.392 282.21 142.832 284.834 142.832C287.458 142.832 289.826 143.392 291.938 144.512C294.05 145.632 295.714 147.248 296.93 149.36C298.146 151.44 298.754 153.856 298.754 156.608C298.754 159.36 298.13 161.792 296.882 163.904C295.666 165.984 293.986 167.584 291.842 168.704C289.73 169.824 287.362 170.384 284.738 170.384ZM284.738 163.28C286.306 163.28 287.634 162.704 288.722 161.552C289.842 160.4 290.402 158.752 290.402 156.608C290.402 154.464 289.858 152.816 288.77 151.664C287.714 150.512 286.402 149.936 284.834 149.936C283.234 149.936 281.906 150.512 280.85 151.664C279.794 152.784 279.266 154.432 279.266 156.608C279.266 158.752 279.778 160.4 280.802 161.552C281.858 162.704 283.17 163.28 284.738 163.28ZM312.317 147.68C313.277 146.208 314.477 145.056 315.917 144.224C317.357 143.36 318.957 142.928 320.717 142.928V151.616H318.461C316.413 151.616 314.877 152.064 313.853 152.96C312.829 153.824 312.317 155.36 312.317 157.568V170H304.109V143.216H312.317V147.68ZM350.888 156.176C350.888 156.944 350.84 157.744 350.744 158.576H332.168C332.296 160.24 332.824 161.52 333.752 162.416C334.712 163.28 335.88 163.712 337.256 163.712C339.304 163.712 340.728 162.848 341.528 161.12H350.264C349.816 162.88 349 164.464 347.816 165.872C346.664 167.28 345.208 168.384 343.448 169.184C341.688 169.984 339.72 170.384 337.544 170.384C334.92 170.384 332.584 169.824 330.536 168.704C328.488 167.584 326.888 165.984 325.736 163.904C324.584 161.824 324.008 159.392 324.008 156.608C324.008 153.824 324.568 151.392 325.688 149.312C326.84 147.232 328.44 145.632 330.488 144.512C332.536 143.392 334.888 142.832 337.544 142.832C340.136 142.832 342.44 143.376 344.456 144.464C346.472 145.552 348.04 147.104 349.16 149.12C350.312 151.136 350.888 153.488 350.888 156.176ZM342.488 154.016C342.488 152.608 342.008 151.488 341.048 150.656C340.088 149.824 338.888 149.408 337.448 149.408C336.072 149.408 334.904 149.808 333.944 150.608C333.016 151.408 332.44 152.544 332.216 154.016H342.488ZM36.5649 190.432C35.1249 190.432 33.9409 190.016 33.0129 189.184C32.1169 188.32 31.6689 187.264 31.6689 186.016C31.6689 184.736 32.1169 183.68 33.0129 182.848C33.9409 181.984 35.1249 181.552 36.5649 181.552C37.9729 181.552 39.1249 181.984 40.0209 182.848C40.9489 183.68 41.4129 184.736 41.4129 186.016C41.4129 187.264 40.9489 188.32 40.0209 189.184C39.1249 190.016 37.9729 190.432 36.5649 190.432ZM40.6449 193.216V220H32.4369V193.216H40.6449ZM63.9132 192.928C67.0492 192.928 69.5452 193.952 71.4012 196C73.2892 198.016 74.2332 200.8 74.2332 204.352V220H66.0732V205.456C66.0732 203.664 65.6092 202.272 64.6812 201.28C63.7532 200.288 62.5052 199.792 60.9372 199.792C59.3692 199.792 58.1212 200.288 57.1932 201.28C56.2652 202.272 55.8012 203.664 55.8012 205.456V220H47.5932V193.216H55.8012V196.768C56.6332 195.584 57.7532 194.656 59.1612 193.984C60.5692 193.28 62.1532 192.928 63.9132 192.928ZM94.3769 200.032H89.9609V220H81.7529V200.032H78.7769V193.216H81.7529V192.448C81.7529 189.152 82.6969 186.656 84.5849 184.96C86.4729 183.232 89.2409 182.368 92.8889 182.368C93.4969 182.368 93.9449 182.384 94.2329 182.416V189.376C92.6649 189.28 91.5609 189.504 90.9209 190.048C90.2809 190.592 89.9609 191.568 89.9609 192.976V193.216H94.3769V200.032ZM111.426 220.384C108.802 220.384 106.434 219.824 104.322 218.704C102.242 217.584 100.594 215.984 99.3778 213.904C98.1938 211.824 97.6018 209.392 97.6018 206.608C97.6018 203.856 98.2098 201.44 99.4258 199.36C100.642 197.248 102.306 195.632 104.418 194.512C106.53 193.392 108.898 192.832 111.522 192.832C114.146 192.832 116.514 193.392 118.626 194.512C120.738 195.632 122.402 197.248 123.618 199.36C124.834 201.44 125.442 203.856 125.442 206.608C125.442 209.36 124.818 211.792 123.57 213.904C122.354 215.984 120.674 217.584 118.53 218.704C116.418 219.824 114.05 220.384 111.426 220.384ZM111.426 213.28C112.994 213.28 114.322 212.704 115.41 211.552C116.53 210.4 117.09 208.752 117.09 206.608C117.09 204.464 116.546 202.816 115.458 201.664C114.402 200.512 113.09 199.936 111.522 199.936C109.922 199.936 108.594 200.512 107.538 201.664C106.482 202.784 105.954 204.432 105.954 206.608C105.954 208.752 106.466 210.4 107.49 211.552C108.546 212.704 109.858 213.28 111.426 213.28ZM139.004 197.68C139.964 196.208 141.164 195.056 142.604 194.224C144.044 193.36 145.644 192.928 147.404 192.928V201.616H145.148C143.1 201.616 141.564 202.064 140.54 202.96C139.516 203.824 139.004 205.36 139.004 207.568V220H130.796V193.216H139.004V197.68ZM186.504 192.928C189.832 192.928 192.472 193.936 194.424 195.952C196.408 197.968 197.4 200.768 197.4 204.352V220H189.24V205.456C189.24 203.728 188.776 202.4 187.848 201.472C186.952 200.512 185.704 200.032 184.104 200.032C182.504 200.032 181.24 200.512 180.312 201.472C179.416 202.4 178.968 203.728 178.968 205.456V220H170.808V205.456C170.808 203.728 170.344 202.4 169.416 201.472C168.52 200.512 167.272 200.032 165.672 200.032C164.072 200.032 162.808 200.512 161.88 201.472C160.984 202.4 160.536 203.728 160.536 205.456V220H152.328V193.216H160.536V196.576C161.368 195.456 162.456 194.576 163.8 193.936C165.144 193.264 166.664 192.928 168.36 192.928C170.376 192.928 172.168 193.36 173.736 194.224C175.336 195.088 176.584 196.32 177.48 197.92C178.408 196.448 179.672 195.248 181.272 194.32C182.872 193.392 184.616 192.928 186.504 192.928ZM202.508 206.56C202.508 203.808 203.02 201.392 204.044 199.312C205.1 197.232 206.524 195.632 208.316 194.512C210.108 193.392 212.108 192.832 214.316 192.832C216.204 192.832 217.852 193.216 219.26 193.984C220.7 194.752 221.804 195.76 222.572 197.008V193.216H230.78V220H222.572V216.208C221.772 217.456 220.652 218.464 219.212 219.232C217.804 220 216.156 220.384 214.268 220.384C212.092 220.384 210.108 219.824 208.316 218.704C206.524 217.552 205.1 215.936 204.044 213.856C203.02 211.744 202.508 209.312 202.508 206.56ZM222.572 206.608C222.572 204.56 221.996 202.944 220.844 201.76C219.724 200.576 218.348 199.984 216.716 199.984C215.084 199.984 213.692 200.576 212.54 201.76C211.42 202.912 210.86 204.512 210.86 206.56C210.86 208.608 211.42 210.24 212.54 211.456C213.692 212.64 215.084 213.232 216.716 213.232C218.348 213.232 219.724 212.64 220.844 211.456C221.996 210.272 222.572 208.656 222.572 206.608ZM252.646 213.04V220H248.47C245.494 220 243.174 219.28 241.51 217.84C239.846 216.368 239.014 213.984 239.014 210.688V200.032H235.75V193.216H239.014V186.688H247.222V193.216H252.598V200.032H247.222V210.784C247.222 211.584 247.414 212.16 247.798 212.512C248.182 212.864 248.822 213.04 249.718 213.04H252.646ZM262.346 190.432C260.906 190.432 259.722 190.016 258.794 189.184C257.898 188.32 257.45 187.264 257.45 186.016C257.45 184.736 257.898 183.68 258.794 182.848C259.722 181.984 260.906 181.552 262.346 181.552C263.754 181.552 264.906 181.984 265.802 182.848C266.73 183.68 267.194 184.736 267.194 186.016C267.194 187.264 266.73 188.32 265.802 189.184C264.906 190.016 263.754 190.432 262.346 190.432ZM266.426 193.216V220H258.218V193.216H266.426ZM285.566 220.384C282.942 220.384 280.574 219.824 278.462 218.704C276.382 217.584 274.734 215.984 273.518 213.904C272.334 211.824 271.742 209.392 271.742 206.608C271.742 203.856 272.35 201.44 273.566 199.36C274.782 197.248 276.446 195.632 278.558 194.512C280.67 193.392 283.038 192.832 285.662 192.832C288.286 192.832 290.654 193.392 292.766 194.512C294.878 195.632 296.542 197.248 297.758 199.36C298.974 201.44 299.582 203.856 299.582 206.608C299.582 209.36 298.958 211.792 297.71 213.904C296.494 215.984 294.814 217.584 292.67 218.704C290.558 219.824 288.19 220.384 285.566 220.384ZM285.566 213.28C287.134 213.28 288.462 212.704 289.55 211.552C290.67 210.4 291.23 208.752 291.23 206.608C291.23 204.464 290.686 202.816 289.598 201.664C288.542 200.512 287.23 199.936 285.662 199.936C284.062 199.936 282.734 200.512 281.678 201.664C280.622 202.784 280.094 204.432 280.094 206.608C280.094 208.752 280.606 210.4 281.63 211.552C282.686 212.704 283.998 213.28 285.566 213.28ZM321.257 192.928C324.393 192.928 326.889 193.952 328.745 196C330.633 198.016 331.577 200.8 331.577 204.352V220H323.417V205.456C323.417 203.664 322.953 202.272 322.025 201.28C321.097 200.288 319.849 199.792 318.281 199.792C316.713 199.792 315.465 200.288 314.537 201.28C313.609 202.272 313.145 203.664 313.145 205.456V220H304.937V193.216H313.145V196.768C313.977 195.584 315.097 194.656 316.505 193.984C317.913 193.28 319.497 192.928 321.257 192.928ZM364.381 213.04V220H360.205C357.229 220 354.909 219.28 353.245 217.84C351.581 216.368 350.749 213.984 350.749 210.688V200.032H347.485V193.216H350.749V186.688H358.957V193.216H364.333V200.032H358.957V210.784C358.957 211.584 359.149 212.16 359.533 212.512C359.917 212.864 360.557 213.04 361.453 213.04H364.381ZM382.145 220.384C379.521 220.384 377.153 219.824 375.041 218.704C372.961 217.584 371.313 215.984 370.097 213.904C368.913 211.824 368.321 209.392 368.321 206.608C368.321 203.856 368.929 201.44 370.145 199.36C371.361 197.248 373.025 195.632 375.137 194.512C377.249 193.392 379.617 192.832 382.241 192.832C384.865 192.832 387.233 193.392 389.345 194.512C391.457 195.632 393.121 197.248 394.337 199.36C395.553 201.44 396.161 203.856 396.161 206.608C396.161 209.36 395.537 211.792 394.289 213.904C393.073 215.984 391.393 217.584 389.249 218.704C387.137 219.824 384.769 220.384 382.145 220.384ZM382.145 213.28C383.713 213.28 385.041 212.704 386.129 211.552C387.249 210.4 387.809 208.752 387.809 206.608C387.809 204.464 387.265 202.816 386.177 201.664C385.121 200.512 383.809 199.936 382.241 199.936C380.641 199.936 379.313 200.512 378.257 201.664C377.201 202.784 376.673 204.432 376.673 206.608C376.673 208.752 377.185 210.4 378.209 211.552C379.265 212.704 380.577 213.28 382.145 213.28ZM72.3083 242.832C74.1963 242.832 75.8443 243.216 77.2523 243.984C78.6923 244.752 79.7963 245.76 80.5643 247.008V243.216H88.7723V269.952C88.7723 272.416 88.2763 274.64 87.2843 276.624C86.3243 278.64 84.8363 280.24 82.8203 281.424C80.8363 282.608 78.3563 283.2 75.3803 283.2C71.4123 283.2 68.1963 282.256 65.7323 280.368C63.2683 278.512 61.8603 275.984 61.5083 272.784H69.6203C69.8763 273.808 70.4843 274.608 71.4443 275.184C72.4043 275.792 73.5883 276.096 74.9963 276.096C76.6923 276.096 78.0363 275.6 79.0283 274.608C80.0523 273.648 80.5643 272.096 80.5643 269.952V266.16C79.7643 267.408 78.6603 268.432 77.2523 269.232C75.8443 270 74.1963 270.384 72.3083 270.384C70.1003 270.384 68.1003 269.824 66.3083 268.704C64.5163 267.552 63.0923 265.936 62.0363 263.856C61.0123 261.744 60.5003 259.312 60.5003 256.56C60.5003 253.808 61.0123 251.392 62.0363 249.312C63.0923 247.232 64.5163 245.632 66.3083 244.512C68.1003 243.392 70.1003 242.832 72.3083 242.832ZM80.5643 256.608C80.5643 254.56 79.9883 252.944 78.8363 251.76C77.7163 250.576 76.3403 249.984 74.7083 249.984C73.0763 249.984 71.6843 250.576 70.5323 251.76C69.4123 252.912 68.8523 254.512 68.8523 256.56C68.8523 258.608 69.4123 260.24 70.5323 261.456C71.6843 262.64 73.0763 263.232 74.7083 263.232C76.3403 263.232 77.7163 262.64 78.8363 261.456C79.9883 260.272 80.5643 258.656 80.5643 256.608ZM120.958 256.176C120.958 256.944 120.91 257.744 120.814 258.576H102.238C102.366 260.24 102.894 261.52 103.822 262.416C104.782 263.28 105.95 263.712 107.326 263.712C109.374 263.712 110.798 262.848 111.598 261.12H120.334C119.886 262.88 119.07 264.464 117.886 265.872C116.734 267.28 115.278 268.384 113.518 269.184C111.758 269.984 109.79 270.384 107.614 270.384C104.99 270.384 102.654 269.824 100.606 268.704C98.5584 267.584 96.9584 265.984 95.8064 263.904C94.6544 261.824 94.0784 259.392 94.0784 256.608C94.0784 253.824 94.6384 251.392 95.7584 249.312C96.9104 247.232 98.5104 245.632 100.558 244.512C102.606 243.392 104.958 242.832 107.614 242.832C110.206 242.832 112.51 243.376 114.526 244.464C116.542 245.552 118.11 247.104 119.23 249.12C120.382 251.136 120.958 253.488 120.958 256.176ZM112.558 254.016C112.558 252.608 112.078 251.488 111.118 250.656C110.158 249.824 108.958 249.408 107.518 249.408C106.142 249.408 104.974 249.808 104.014 250.608C103.086 251.408 102.51 252.544 102.286 254.016H112.558ZM141.217 263.04V270H137.041C134.065 270 131.745 269.28 130.081 267.84C128.417 266.368 127.585 263.984 127.585 260.688V250.032H124.321V243.216H127.585V236.688H135.793V243.216H141.169V250.032H135.793V260.784C135.793 261.584 135.985 262.16 136.369 262.512C136.753 262.864 137.393 263.04 138.289 263.04H141.217ZM168.856 270.384C166.52 270.384 164.44 269.984 162.616 269.184C160.792 268.384 159.352 267.296 158.296 265.92C157.24 264.512 156.648 262.944 156.52 261.216H164.632C164.728 262.144 165.16 262.896 165.928 263.472C166.696 264.048 167.64 264.336 168.76 264.336C169.784 264.336 170.568 264.144 171.112 263.76C171.688 263.344 171.976 262.816 171.976 262.176C171.976 261.408 171.576 260.848 170.776 260.496C169.976 260.112 168.68 259.696 166.888 259.248C164.968 258.8 163.368 258.336 162.088 257.856C160.808 257.344 159.704 256.56 158.776 255.504C157.848 254.416 157.384 252.96 157.384 251.136C157.384 249.6 157.8 248.208 158.632 246.96C159.496 245.68 160.744 244.672 162.376 243.936C164.04 243.2 166.008 242.832 168.28 242.832C171.64 242.832 174.28 243.664 176.2 245.328C178.152 246.992 179.272 249.2 179.56 251.952H171.976C171.848 251.024 171.432 250.288 170.728 249.744C170.056 249.2 169.16 248.928 168.04 248.928C167.08 248.928 166.344 249.12 165.832 249.504C165.32 249.856 165.064 250.352 165.064 250.992C165.064 251.76 165.464 252.336 166.264 252.72C167.096 253.104 168.376 253.488 170.104 253.872C172.088 254.384 173.704 254.896 174.952 255.408C176.2 255.888 177.288 256.688 178.216 257.808C179.176 258.896 179.672 260.368 179.704 262.224C179.704 263.792 179.256 265.2 178.36 266.448C177.496 267.664 176.232 268.624 174.568 269.328C172.936 270.032 171.032 270.384 168.856 270.384ZM200.654 263.04V270H196.478C193.502 270 191.182 269.28 189.518 267.84C187.854 266.368 187.022 263.984 187.022 260.688V250.032H183.758V243.216H187.022V236.688H195.23V243.216H200.606V250.032H195.23V260.784C195.23 261.584 195.422 262.16 195.806 262.512C196.19 262.864 196.83 263.04 197.726 263.04H200.654ZM204.594 256.56C204.594 253.808 205.106 251.392 206.13 249.312C207.186 247.232 208.61 245.632 210.402 244.512C212.194 243.392 214.194 242.832 216.402 242.832C218.29 242.832 219.938 243.216 221.346 243.984C222.786 244.752 223.89 245.76 224.658 247.008V243.216H232.866V270H224.658V266.208C223.858 267.456 222.738 268.464 221.298 269.232C219.89 270 218.242 270.384 216.354 270.384C214.178 270.384 212.194 269.824 210.402 268.704C208.61 267.552 207.186 265.936 206.13 263.856C205.106 261.744 204.594 259.312 204.594 256.56ZM224.658 256.608C224.658 254.56 224.082 252.944 222.93 251.76C221.81 250.576 220.434 249.984 218.802 249.984C217.17 249.984 215.778 250.576 214.626 251.76C213.506 252.912 212.946 254.512 212.946 256.56C212.946 258.608 213.506 260.24 214.626 261.456C215.778 262.64 217.17 263.232 218.802 263.232C220.434 263.232 221.81 262.64 222.93 261.456C224.082 260.272 224.658 258.656 224.658 256.608ZM248.012 247.68C248.972 246.208 250.172 245.056 251.612 244.224C253.052 243.36 254.652 242.928 256.412 242.928V251.616H254.156C252.108 251.616 250.572 252.064 249.548 252.96C248.524 253.824 248.012 255.36 248.012 257.568V270H239.804V243.216H248.012V247.68ZM276.263 263.04V270H272.087C269.111 270 266.791 269.28 265.127 267.84C263.463 266.368 262.631 263.984 262.631 260.688V250.032H259.367V243.216H262.631V236.688H270.839V243.216H276.215V250.032H270.839V260.784C270.839 261.584 271.031 262.16 271.415 262.512C271.799 262.864 272.439 263.04 273.335 263.04H276.263ZM307.083 256.176C307.083 256.944 307.035 257.744 306.939 258.576H288.363C288.491 260.24 289.019 261.52 289.947 262.416C290.907 263.28 292.075 263.712 293.451 263.712C295.499 263.712 296.923 262.848 297.723 261.12H306.459C306.011 262.88 305.195 264.464 304.011 265.872C302.859 267.28 301.403 268.384 299.643 269.184C297.883 269.984 295.915 270.384 293.739 270.384C291.115 270.384 288.779 269.824 286.731 268.704C284.683 267.584 283.083 265.984 281.931 263.904C280.779 261.824 280.203 259.392 280.203 256.608C280.203 253.824 280.763 251.392 281.883 249.312C283.035 247.232 284.635 245.632 286.683 244.512C288.731 243.392 291.083 242.832 293.739 242.832C296.331 242.832 298.635 243.376 300.651 244.464C302.667 245.552 304.235 247.104 305.355 249.12C306.507 251.136 307.083 253.488 307.083 256.176ZM298.683 254.016C298.683 252.608 298.203 251.488 297.243 250.656C296.283 249.824 295.083 249.408 293.643 249.408C292.267 249.408 291.099 249.808 290.139 250.608C289.211 251.408 288.635 252.544 288.411 254.016H298.683ZM310.782 256.56C310.782 253.808 311.294 251.392 312.318 249.312C313.374 247.232 314.798 245.632 316.59 244.512C318.382 243.392 320.382 242.832 322.59 242.832C324.35 242.832 325.95 243.2 327.39 243.936C328.862 244.672 330.014 245.664 330.846 246.912V234.48H339.054V270H330.846V266.16C330.078 267.44 328.974 268.464 327.534 269.232C326.126 270 324.478 270.384 322.59 270.384C320.382 270.384 318.382 269.824 316.59 268.704C314.798 267.552 313.374 265.936 312.318 263.856C311.294 261.744 310.782 259.312 310.782 256.56ZM330.846 256.608C330.846 254.56 330.27 252.944 329.118 251.76C327.998 250.576 326.622 249.984 324.99 249.984C323.358 249.984 321.966 250.576 320.814 251.76C319.694 252.912 319.134 254.512 319.134 256.56C319.134 258.608 319.694 260.24 320.814 261.456C321.966 262.64 323.358 263.232 324.99 263.232C326.622 263.232 327.998 262.64 329.118 261.456C330.27 260.272 330.846 258.656 330.846 256.608ZM355.832 234.432C359.256 234.432 361.992 235.328 364.04 237.12C366.12 238.912 367.16 241.44 367.16 244.704C367.16 247.712 366.168 250.064 364.184 251.76C362.232 253.424 359.64 254.272 356.408 254.304L356.168 257.904H348.968L348.728 248.976H351.608C354.072 248.976 355.944 248.672 357.224 248.064C358.536 247.456 359.192 246.352 359.192 244.752C359.192 243.632 358.888 242.752 358.28 242.112C357.672 241.472 356.824 241.152 355.736 241.152C354.584 241.152 353.688 241.488 353.048 242.16C352.408 242.8 352.088 243.68 352.088 244.8H344.36C344.296 242.848 344.696 241.088 345.56 239.52C346.456 237.952 347.768 236.72 349.496 235.824C351.256 234.896 353.368 234.432 355.832 234.432ZM352.664 270.384C351.224 270.384 350.04 269.968 349.112 269.136C348.216 268.272 347.768 267.216 347.768 265.968C347.768 264.688 348.216 263.616 349.112 262.752C350.04 261.888 351.224 261.456 352.664 261.456C354.072 261.456 355.224 261.888 356.12 262.752C357.048 263.616 357.512 264.688 357.512 265.968C357.512 267.216 357.048 268.272 356.12 269.136C355.224 269.968 354.072 270.384 352.664 270.384Z" fill="white"/>
</g>
</svg>
